{"title":"XboxReveal - 05 21 2013 - 1080p","uid":8496912,"size":3208708284,"categoryP":"video","categoryS":"hd___tv_shows","magnet":"?xt=urn:btih:1bb135dbc0b94461c3e4284fb9335def1e6cb475&amp;dn=XboxReveal+-+05+21+2013+-+1080p&amp;tr=udp%3A%2F%2Ftracker.openbittorrent.com%3A80&amp;tr=udp%3A%2F%2Fopen.demonii.com%3A1337&amp;tr=udp%3A%2F%2Ftracker.coppersurfer.tk%3A6969&amp;tr=udp%3A%2F%2Fexodus.desync.com%3A6969","seeders":1,"leechers":0,"uploader":"DanAndRoy","files":-1,"time":1369168209,"description":"XboxReveal - 05 21 2013 - 1080p\n\nGeneral\nID                                       : 0 (0x0)\nComplete name                            : X:HD PVR 2XboxReveal - 05 21 2013.M2TS\nFormat                                   : MPEG-TS\nFile size                                : 2.99 GiB\nDuration                                 : 1h 6mn\nOverall bit rate mode                    : Variable\nOverall bit rate                         : 6 397 Kbps\n\nVideo\nID                                       : 4113 (0x1011)\nMenu ID                                  : 1 (0x1)\nFormat                                   : AVC\nFormat/Info                              : Advanced Video Codec\nFormat profile                           : &lt;a class=&quot;__cf_email__&quot; href=&quot;/cdn-cgi/l/email-protection&quot; data-cfemail=&quot;652d0c020d2529514b55&quot;&gt;[email&amp;#160;protected]&lt;/a&gt;&lt;script cf-hash='f9e31' type=&quot;text/javascript&quot;&gt;\n/* &lt;![CDATA[ */!function(){try{var t=&quot;currentScript&quot;in document?document.currentScript:function(){for(var t=document.getElementsByTagName(&quot;script&quot;),e=t.length;e--;)if(t[e].getAttribute(&quot;cf-hash&quot;))return t[e]}();if(t&amp;&amp;t.previousSibling){var e,r,n,i,c=t.previousSibling,a=c.getAttribute(&quot;data-cfemail&quot;);if(a){for(e=&quot;&quot;,r=parseInt(a.substr(0,2),16),n=2;a.length-n;n+=2)i=parseInt(a.substr(n,2),16)^r,e+=String.fromCharCode(i);e=document.createTextNode(e),c.parentNode.replaceChild(e,c)}}}catch(u){}}();/* ]]&gt; */&lt;/script&gt;\nFormat settings, CABAC                   : Yes\nFormat settings, ReFrames                : 3 frames\nCodec ID                                 : 27\nDuration                                 : 1h 6mn\nBit rate                                 : 5 984 Kbps\nWidth                                    : 1 920 pixels\nHeight                                   : 1 080 pixels\nDisplay aspect ratio                     : 16:9\nFrame rate                               : 29.970 fps\nStandard                                 : Component\nColor space                              : YUV\nChroma subsampling                       : 4:2:0\nBit depth                                : 8 bits\nScan type                                : Progressive\nBits/(Pixel*Frame)                       : 0.096\nStream size                              : 2.79 GiB (94%)\nColor primaries                          : BT.709\nTransfer characteristics                 : BT.709\nMatrix coefficients                      : BT.709\n\nAudio\nID                                       : 4352 (0x1100)\nMenu ID                                  : 1 (0x1)\nFormat                                   : AAC\nFormat/Info                              : Advanced Audio Codec\nFormat version                           : Version 2\nFormat profile                           : LC\nMuxing mode                              : ADTS\nCodec ID                                 : 15\nDuration                                 : 1h 6mn\nBit rate mode                            : Variable\nBit rate                                 : 96.0 Kbps\nChannel(s)                               : 2 channels\nChannel positions                        : Front: L R\nSampling rate                            : 48.0 KHz\nCompression mode                         : Lossy\nDelay relative to video                  : 6ms\nStream size                              : 45.9 MiB (1%)\n\n","torrent":{"xt":"urn:btih:1bb135dbc0b94461c3e4284fb9335def1e6cb475","amp;dn":"XboxReveal+-+05+21+2013+-+1080p","amp;tr":["udp%3A%2F%2Ftracker.openbittorrent.com%3A80","udp%3A%2F%2Fopen.demonii.com%3A1337","udp%3A%2F%2Ftracker.coppersurfer.tk%3A6969","udp%3A%2F%2Fexodus.desync.com%3A6969"],"infoHash":"1bb135dbc0b94461c3e4284fb9335def1e6cb475","infoHashBuffer":{"type":"Buffer","data":[27,177,53,219,192,185,68,97,195,228,40,79,185,51,93,239,30,108,180,117]},"announce":[],"urlList":[]}}